# xmcd
#
# Track frame offsets: 
#        150
#        9008
#        19902
#        29996
#        40124
#        51611
#        62829
#        74175
#        85196
#        94731
#
# Disc length: 1471 seconds
#
# Revision: 0
# Processed by: cddbd v1.5.2PL0 Copyright (c) Steve Scherf et al.
# Submitted via: ExactAudioCopyFreeDBPlugin 1.0
#
DISCID=8b05bd0a
DTITLE=The Sweet Inspirations - Sweet Sweet Soul (2013)
DYEAR=1970
DGENRE=R&B
TTITLE0=Shut Up!!!
TTITLE1=Give My Love to Somebody
TTITLE2=Two Can Play the Game
TTITLE3=(Gotta Find) A Brand New Lover, Part I
TTITLE4=(Gotta Find) A Brand New Lover, Part II
TTITLE5=Ain't Nothin' In the World
TTITLE6=Them Boys
TTITLE7=Flash In the Pan
TTITLE8=At Last I've Found a Love
TTITLE9=That's the Way My Baby Is
EXTD=
EXTT0=
EXTT1=
EXTT2=
EXTT3=
EXTT4=
EXTT5=
EXTT6=
EXTT7=
EXTT8=
EXTT9=
PLAYORDER=
